<svg width="32" height="32" viewBox="0 0 32 32" fill="none" xmlns="http://www.w3.org/2000/svg">
<g id="chalkboard-user 1" clip-path="url(#clip0_459_4997)">
<path id="Vector" d="M18.6667 30.6667C18.6667 31.4027 18.0693 32 17.3333 32H1.33333C0.597333 32 0 31.4027 0 30.6667C0 25.512 4.17867 21.3333 9.33333 21.3333C14.488 21.3333 18.6667 25.512 18.6667 30.6667ZM9.33333 8C6.388 8 4 10.388 4 13.3333C4 16.2787 6.388 18.6667 9.33333 18.6667C12.2787 18.6667 14.6667 16.2787 14.6667 13.3333C14.6667 10.388 12.2787 8 9.33333 8ZM32 6.66667V17.3333C32 21.0147 29.0147 24 25.3333 24H19.2987C18.0387 22.1253 16.2653 20.6227 14.18 19.6973C16.096 18.236 17.3333 15.9293 17.3333 13.3333C17.3333 8.91467 13.752 5.33333 9.33333 5.33333C7.888 5.33333 6.53067 5.71733 5.36133 6.388C5.51067 2.844 8.42 0 12 0H25.3333C29.0147 0 32 2.98533 32 6.66667ZM26.6667 20C26.6667 19.2627 26.0693 18.6667 25.3333 18.6667H20.6667C19.9307 18.6667 19.3333 19.2627 19.3333 20C19.3333 20.7373 19.9307 21.3333 20.6667 21.3333H25.3333C26.0693 21.3333 26.6667 20.7373 26.6667 20Z" fill="#00CC99"/>
</g>
<defs>
<clipPath id="clip0_459_4997">
<rect width="32" height="32" fill="white"/>
</clipPath>
</defs>
</svg>
