<svg width="16" height="16" viewBox="0 0 16 16" fill="none" xmlns="http://www.w3.org/2000/svg">
<g id="fi-sr-caret-down">
<path id="Vector" d="M3.80457 7.138L7.52857 10.862C7.65358 10.987 7.82312 11.0572 7.9999 11.0572C8.17668 11.0572 8.34621 10.987 8.47123 10.862L12.1952 7.138C12.2884 7.04477 12.3519 6.92599 12.3776 6.79669C12.4033 6.66739 12.3901 6.53336 12.3397 6.41156C12.2892 6.28976 12.2038 6.18565 12.0942 6.1124C11.9846 6.03914 11.8557 6.00003 11.7239 6H4.2759C4.14407 6.00003 4.0152 6.03914 3.90559 6.1124C3.79599 6.18565 3.71056 6.28976 3.66011 6.41156C3.60967 6.53336 3.59647 6.66739 3.62218 6.79669C3.64789 6.92599 3.71136 7.04477 3.80457 7.138Z" fill="#2B2B2B"/>
</g>
</svg>
