<svg width="40" height="40" viewBox="0 0 40 40" fill="none" xmlns="http://www.w3.org/2000/svg">
<g id="User" clip-path="url(#clip0_719_1123)">
<g id="Group">
<path id="Vector" fill-rule="evenodd" clip-rule="evenodd" d="M20.0002 3.3335C10.7952 3.3335 3.3335 10.7952 3.3335 20.0002C3.3335 29.2052 10.7952 36.6668 20.0002 36.6668C29.2052 36.6668 36.6668 29.2052 36.6668 20.0002C36.6668 10.7952 29.2052 3.3335 20.0002 3.3335ZM14.1668 15.8335C14.1668 15.0675 14.3177 14.3089 14.6109 13.6012C14.904 12.8934 15.3337 12.2504 15.8754 11.7087C16.417 11.167 17.0601 10.7374 17.7678 10.4442C18.4756 10.151 19.2341 10.0002 20.0002 10.0002C20.7662 10.0002 21.5247 10.151 22.2325 10.4442C22.9402 10.7374 23.5833 11.167 24.125 11.7087C24.6666 12.2504 25.0963 12.8934 25.3895 13.6012C25.6826 14.3089 25.8335 15.0675 25.8335 15.8335C25.8335 17.3806 25.2189 18.8643 24.125 19.9583C23.031 21.0522 21.5473 21.6668 20.0002 21.6668C18.4531 21.6668 16.9693 21.0522 15.8754 19.9583C14.7814 18.8643 14.1668 17.3806 14.1668 15.8335ZM30.4302 28.3068C29.1826 29.8762 27.5965 31.1434 25.7904 32.0138C23.9844 32.8843 22.005 33.3354 20.0002 33.3335C17.9953 33.3354 16.0159 32.8843 14.2099 32.0138C12.4038 31.1434 10.8178 29.8762 9.57016 28.3068C12.2718 26.3685 15.9585 25.0002 20.0002 25.0002C24.0418 25.0002 27.7285 26.3685 30.4302 28.3068Z" fill="#2B2B2B"/>
</g>
</g>
<defs>
<clipPath id="clip0_719_1123">
<rect width="40" height="40" fill="white"/>
</clipPath>
</defs>
</svg>
