<svg xmlns="http://www.w3.org/2000/svg" xmlns:xlink="http://www.w3.org/1999/xlink" width="637" zoomAndPan="magnify" viewBox="0 0 477.75 167.999997" height="224" preserveAspectRatio="xMidYMid meet" version="1.0"><defs><g/><clipPath id="32adca3950"><path d="M 0 0.0429688 L 477.5 0.0429688 L 477.5 167.957031 L 0 167.957031 Z M 0 0.0429688 " clip-rule="nonzero"/></clipPath><clipPath id="3c42158a3e"><path d="M 37.5 37.84375 L 175 37.84375 L 175 124 L 37.5 124 Z M 37.5 37.84375 " clip-rule="nonzero"/></clipPath><clipPath id="29fb766f84"><path d="M 38 76 L 177.75 76 L 177.75 127.84375 L 38 127.84375 Z M 38 76 " clip-rule="nonzero"/></clipPath></defs><g clip-path="url(#32adca3950)"><path fill="#ffffff" d="M 0 0.0429688 L 477.75 0.0429688 L 477.75 175.542969 L 0 175.542969 Z M 0 0.0429688 " fill-opacity="1" fill-rule="nonzero"/><path fill="#ffffff" d="M 0 0.0429688 L 477.75 0.0429688 L 477.75 168.042969 L 0 168.042969 Z M 0 0.0429688 " fill-opacity="1" fill-rule="nonzero"/></g><g clip-path="url(#3c42158a3e)"><path fill="#ee4036" d="M 95.507812 75.503906 C 90.640625 77.007812 85.683594 79.015625 80.726562 81.660156 L 77.773438 75.140625 L 72.496094 86.628906 C 60.675781 94.605469 48.851562 106.460938 37.664062 123.375 L 77.453125 37.84375 L 77.953125 37.84375 Z M 154.710938 73.042969 C 145.34375 68.617188 139.160156 66.933594 139.160156 62.054688 C 139.160156 57.8125 143.707031 54.304688 149.847656 54.304688 C 154.394531 54.304688 159.121094 56.261719 161.53125 61.140625 L 173.628906 52.660156 C 169.992188 42.769531 160.757812 38.164062 149.617188 38.164062 C 134.613281 38.164062 122.652344 47.507812 122.652344 61.6875 C 122.652344 65.972656 123.746094 69.394531 125.519531 72.222656 C 147.574219 73.816406 165.761719 83.480469 174.582031 89.089844 C 171.265625 82.296875 164.214844 77.554688 154.710938 73.042969 Z M 154.710938 73.042969 " fill-opacity="1" fill-rule="nonzero"/></g><g clip-path="url(#29fb766f84)"><path fill="#726ab4" d="M 177.585938 103.40625 C 177.585938 106.097656 177.175781 108.605469 176.449219 110.882812 L 176.449219 110.972656 C 173.039062 121.460938 162.261719 127.796875 147.980469 127.796875 C 134.613281 127.796875 124.699219 122.191406 119.242188 112.070312 L 132.386719 102.8125 C 135.976562 108.605469 141.207031 111.25 148.253906 111.25 C 155.941406 111.25 161.125 108.101562 161.125 103.726562 C 161.125 102.859375 160.894531 102.039062 160.53125 101.21875 C 137.476562 89.226562 118.015625 88.589844 102.417969 92.917969 L 118.652344 127.84375 L 100.507812 127.84375 L 95.234375 116.171875 L 88.730469 101.855469 L 87.414062 98.984375 C 67.40625 109.878906 56.808594 127.386719 56.582031 127.796875 L 38.53125 127.796875 C 49.761719 110.835938 61.539062 99.027344 73.363281 91.050781 C 76.089844 89.179688 78.816406 87.539062 81.546875 86.082031 C 86.503906 83.4375 91.460938 81.386719 96.324219 79.925781 C 106.785156 76.734375 116.925781 75.914062 126.335938 76.597656 C 148.390625 78.195312 166.582031 87.859375 175.402344 93.46875 C 176.855469 96.429688 177.585938 99.667969 177.585938 103.40625 Z M 177.585938 103.40625 " fill-opacity="1" fill-rule="nonzero"/></g><g fill="#ee4036" fill-opacity="1"><g transform="translate(190.770501, 98.593924)"><g><path d="M 3.234375 0.484375 C 2.835938 0.359375 2.554688 0.109375 2.390625 -0.265625 C 2.234375 -0.648438 2.238281 -1.039062 2.40625 -1.4375 L 17.453125 -42.0625 C 17.734375 -42.695312 18.21875 -43.015625 18.90625 -43.015625 C 19.582031 -43.015625 20.0625 -42.695312 20.34375 -42.0625 L 35.453125 -1.4375 C 35.617188 -1.039062 35.609375 -0.648438 35.421875 -0.265625 C 35.242188 0.109375 34.957031 0.359375 34.5625 0.484375 C 34.195312 0.640625 33.820312 0.628906 33.4375 0.453125 C 33.0625 0.273438 32.796875 -0.015625 32.640625 -0.421875 L 18.90625 -37.203125 L 10.5625 -14.9375 L 21.90625 -14.9375 C 22.300781 -14.9375 22.640625 -14.785156 22.921875 -14.484375 C 23.203125 -14.191406 23.34375 -13.820312 23.34375 -13.375 C 23.34375 -12.976562 23.203125 -12.640625 22.921875 -12.359375 C 22.640625 -12.078125 22.300781 -11.9375 21.90625 -11.9375 L 9.421875 -11.9375 L 5.15625 -0.421875 C 5 -0.015625 4.738281 0.273438 4.375 0.453125 C 4.019531 0.628906 3.640625 0.640625 3.234375 0.484375 Z M 3.234375 0.484375 "/></g></g></g><g fill="#ee4036" fill-opacity="1"><g transform="translate(228.563134, 98.593924)"><g><path d="M 6 0 C 5.601562 0 5.253906 -0.148438 4.953125 -0.453125 C 4.648438 -0.753906 4.5 -1.101562 4.5 -1.5 L 4.5 -40.5 C 4.5 -40.894531 4.648438 -41.242188 4.953125 -41.546875 C 5.253906 -41.847656 5.601562 -42 6 -42 L 27.0625 -42 C 27.5 -42 27.859375 -41.847656 28.140625 -41.546875 C 28.421875 -41.242188 28.5625 -40.894531 28.5625 -40.5 C 28.5625 -40.101562 28.421875 -39.753906 28.140625 -39.453125 C 27.859375 -39.148438 27.5 -39 27.0625 -39 L 7.5 -39 L 7.5 -22.859375 L 23.765625 -22.859375 C 24.160156 -22.859375 24.507812 -22.71875 24.8125 -22.4375 C 25.113281 -22.15625 25.265625 -21.796875 25.265625 -21.359375 C 25.265625 -20.960938 25.113281 -20.613281 24.8125 -20.3125 C 24.507812 -20.007812 24.160156 -19.859375 23.765625 -19.859375 L 7.5 -19.859375 L 7.5 -3 L 27.0625 -3 C 27.5 -3 27.859375 -2.859375 28.140625 -2.578125 C 28.421875 -2.296875 28.5625 -1.9375 28.5625 -1.5 C 28.5625 -1.101562 28.421875 -0.753906 28.140625 -0.453125 C 27.859375 -0.148438 27.5 0 27.0625 0 Z M 6 0 "/></g></g></g><g fill="#ee4036" fill-opacity="1"><g transform="translate(260.536905, 98.593924)"><g><path d="M 17.9375 0.78125 C 15.0625 0.78125 12.34375 0.28125 9.78125 -0.71875 C 7.21875 -1.71875 5.097656 -3.117188 3.421875 -4.921875 C 2.617188 -5.597656 2.640625 -6.296875 3.484375 -7.015625 C 4.203125 -7.660156 4.878906 -7.640625 5.515625 -6.953125 C 6.921875 -5.472656 8.722656 -4.3125 10.921875 -3.46875 C 13.117188 -2.632812 15.457031 -2.21875 17.9375 -2.21875 C 21.375 -2.21875 24.050781 -2.914062 25.96875 -4.3125 C 27.894531 -5.71875 28.859375 -7.660156 28.859375 -10.140625 C 28.859375 -12.742188 27.859375 -14.820312 25.859375 -16.375 C 23.859375 -17.9375 20.738281 -19.039062 16.5 -19.6875 C 12.375 -20.363281 9.332031 -21.660156 7.375 -23.578125 C 5.414062 -25.492188 4.4375 -28.175781 4.4375 -31.625 C 4.4375 -35.175781 5.578125 -37.941406 7.859375 -39.921875 C 10.140625 -41.910156 13.300781 -42.90625 17.34375 -42.90625 C 19.414062 -42.90625 21.570312 -42.503906 23.8125 -41.703125 C 26.0625 -40.898438 28.144531 -39.800781 30.0625 -38.40625 C 30.820312 -37.757812 30.898438 -37.054688 30.296875 -36.296875 C 29.703125 -35.492188 29.023438 -35.394531 28.265625 -36 C 26.617188 -37.238281 24.828125 -38.195312 22.890625 -38.875 C 20.953125 -39.5625 19.101562 -39.90625 17.34375 -39.90625 C 14.21875 -39.90625 11.785156 -39.171875 10.046875 -37.703125 C 8.304688 -36.242188 7.4375 -34.21875 7.4375 -31.625 C 7.4375 -29.0625 8.207031 -27.050781 9.75 -25.59375 C 11.289062 -24.132812 13.703125 -23.144531 16.984375 -22.625 C 22.097656 -21.863281 25.851562 -20.472656 28.25 -18.453125 C 30.65625 -16.429688 31.859375 -13.660156 31.859375 -10.140625 C 31.859375 -6.742188 30.640625 -4.070312 28.203125 -2.125 C 25.765625 -0.1875 22.34375 0.78125 17.9375 0.78125 Z M 17.9375 0.78125 "/></g></g></g><g fill="#ee4036" fill-opacity="1"><g transform="translate(295.75004, 98.593924)"><g><path d="M 18.296875 0.84375 C 17.859375 0.84375 17.488281 0.703125 17.1875 0.421875 C 16.882812 0.140625 16.734375 -0.195312 16.734375 -0.59375 L 16.734375 -39 L 3.71875 -39 C 3.320312 -39 2.984375 -39.148438 2.703125 -39.453125 C 2.421875 -39.753906 2.28125 -40.101562 2.28125 -40.5 C 2.28125 -40.894531 2.421875 -41.242188 2.703125 -41.546875 C 2.984375 -41.847656 3.320312 -42 3.71875 -42 L 32.765625 -42 C 33.160156 -42 33.507812 -41.847656 33.8125 -41.546875 C 34.113281 -41.242188 34.265625 -40.894531 34.265625 -40.5 C 34.265625 -40.101562 34.113281 -39.753906 33.8125 -39.453125 C 33.507812 -39.148438 33.160156 -39 32.765625 -39 L 19.734375 -39 L 19.734375 -0.59375 C 19.734375 -0.195312 19.59375 0.140625 19.3125 0.421875 C 19.039062 0.703125 18.703125 0.84375 18.296875 0.84375 Z M 18.296875 0.84375 "/></g></g></g><g fill="#ee4036" fill-opacity="1"><g transform="translate(332.222941, 98.593924)"><g><path d="M 6 0.84375 C 5.601562 0.84375 5.253906 0.703125 4.953125 0.421875 C 4.648438 0.140625 4.5 -0.195312 4.5 -0.59375 L 4.5 -40.5 C 4.5 -40.894531 4.648438 -41.242188 4.953125 -41.546875 C 5.253906 -41.847656 5.601562 -42 6 -42 L 20.765625 -42 C 23.003906 -42 25.03125 -41.445312 26.84375 -40.34375 C 28.664062 -39.25 30.125 -37.789062 31.21875 -35.96875 C 32.320312 -34.144531 32.875 -32.132812 32.875 -29.9375 C 32.875 -28.0625 32.460938 -26.300781 31.640625 -24.65625 C 30.828125 -23.019531 29.71875 -21.628906 28.3125 -20.484375 C 26.914062 -19.347656 25.316406 -18.582031 23.515625 -18.1875 L 32.8125 -1.3125 C 33.019531 -0.914062 33.0625 -0.523438 32.9375 -0.140625 C 32.820312 0.234375 32.601562 0.519531 32.28125 0.71875 C 31.882812 0.914062 31.492188 0.953125 31.109375 0.828125 C 30.734375 0.710938 30.441406 0.476562 30.234375 0.125 L 20.34375 -17.8125 L 11.578125 -17.8125 C 11.179688 -17.8125 10.832031 -17.960938 10.53125 -18.265625 C 10.226562 -18.566406 10.078125 -18.914062 10.078125 -19.3125 C 10.078125 -19.757812 10.226562 -20.117188 10.53125 -20.390625 C 10.832031 -20.671875 11.179688 -20.8125 11.578125 -20.8125 L 20.765625 -20.8125 C 22.441406 -20.8125 23.96875 -21.222656 25.34375 -22.046875 C 26.726562 -22.867188 27.828125 -23.96875 28.640625 -25.34375 C 29.460938 -26.726562 29.875 -28.257812 29.875 -29.9375 C 29.875 -31.613281 29.460938 -33.132812 28.640625 -34.5 C 27.828125 -35.863281 26.726562 -36.953125 25.34375 -37.765625 C 23.96875 -38.585938 22.441406 -39 20.765625 -39 L 7.5 -39 L 7.5 -0.59375 C 7.5 -0.195312 7.359375 0.140625 7.078125 0.421875 C 6.796875 0.703125 6.4375 0.84375 6 0.84375 Z M 6 0.84375 "/></g></g></g><g fill="#ee4036" fill-opacity="1"><g transform="translate(368.455882, 98.593924)"><g><path d="M 18.84375 0.78125 C 15.84375 0.78125 13.234375 0.160156 11.015625 -1.078125 C 8.796875 -2.316406 7.0625 -4.054688 5.8125 -6.296875 C 4.570312 -8.535156 3.953125 -11.132812 3.953125 -14.09375 L 3.953125 -28.015625 C 3.953125 -31.015625 4.570312 -33.625 5.8125 -35.84375 C 7.0625 -38.070312 8.796875 -39.804688 11.015625 -41.046875 C 13.234375 -42.285156 15.84375 -42.90625 18.84375 -42.90625 C 21.84375 -42.90625 24.453125 -42.285156 26.671875 -41.046875 C 28.890625 -39.804688 30.617188 -38.070312 31.859375 -35.84375 C 33.097656 -33.625 33.71875 -31.015625 33.71875 -28.015625 L 33.71875 -14.09375 C 33.71875 -11.132812 33.097656 -8.535156 31.859375 -6.296875 C 30.617188 -4.054688 28.890625 -2.316406 26.671875 -1.078125 C 24.453125 0.160156 21.84375 0.78125 18.84375 0.78125 Z M 18.84375 -2.21875 C 21.238281 -2.21875 23.328125 -2.707031 25.109375 -3.6875 C 26.890625 -4.664062 28.269531 -6.054688 29.25 -7.859375 C 30.226562 -9.660156 30.71875 -11.738281 30.71875 -14.09375 L 30.71875 -28.015625 C 30.71875 -30.421875 30.226562 -32.507812 29.25 -34.28125 C 28.269531 -36.0625 26.890625 -37.441406 25.109375 -38.421875 C 23.328125 -39.410156 21.238281 -39.90625 18.84375 -39.90625 C 16.4375 -39.90625 14.34375 -39.410156 12.5625 -38.421875 C 10.789062 -37.441406 9.410156 -36.0625 8.421875 -34.28125 C 7.441406 -32.507812 6.953125 -30.421875 6.953125 -28.015625 L 6.953125 -14.09375 C 6.953125 -11.738281 7.441406 -9.660156 8.421875 -7.859375 C 9.410156 -6.054688 10.789062 -4.664062 12.5625 -3.6875 C 14.34375 -2.707031 16.4375 -2.21875 18.84375 -2.21875 Z M 18.84375 -2.21875 "/></g></g></g><g fill="#726ab4" fill-opacity="1"><g transform="translate(199.023196, 124.543987)"><g><path d="M 4.515625 -11.484375 C 5.054688 -11.484375 5.578125 -11.4375 6.078125 -11.34375 C 6.578125 -11.25 7.070312 -11.085938 7.5625 -10.859375 L 7.234375 -9.796875 C 6.722656 -10.035156 6.257812 -10.203125 5.84375 -10.296875 C 5.425781 -10.390625 5.003906 -10.4375 4.578125 -10.4375 C 3.835938 -10.4375 3.242188 -10.269531 2.796875 -9.9375 C 2.359375 -9.613281 2.140625 -9.148438 2.140625 -8.546875 C 2.140625 -8.023438 2.304688 -7.609375 2.640625 -7.296875 C 2.984375 -6.992188 3.507812 -6.726562 4.21875 -6.5 L 5.421875 -6.109375 C 6.335938 -5.796875 7.007812 -5.367188 7.4375 -4.828125 C 7.863281 -4.296875 8.078125 -3.6875 8.078125 -3 C 8.078125 -2.507812 7.984375 -2.066406 7.796875 -1.671875 C 7.617188 -1.285156 7.359375 -0.957031 7.015625 -0.6875 C 6.679688 -0.414062 6.28125 -0.207031 5.8125 -0.0625 C 5.34375 0.0820312 4.828125 0.15625 4.265625 0.15625 C 3.691406 0.15625 3.117188 0.101562 2.546875 0 C 1.972656 -0.101562 1.398438 -0.289062 0.828125 -0.5625 L 1.171875 -1.625 C 1.671875 -1.363281 2.164062 -1.175781 2.65625 -1.0625 C 3.144531 -0.957031 3.65625 -0.90625 4.1875 -0.90625 C 4.925781 -0.90625 5.535156 -1.066406 6.015625 -1.390625 C 6.503906 -1.710938 6.75 -2.207031 6.75 -2.875 C 6.75 -3.113281 6.710938 -3.335938 6.640625 -3.546875 C 6.578125 -3.765625 6.460938 -3.960938 6.296875 -4.140625 C 6.128906 -4.316406 5.898438 -4.484375 5.609375 -4.640625 C 5.328125 -4.804688 4.960938 -4.960938 4.515625 -5.109375 L 3.34375 -5.484375 C 2.59375 -5.722656 1.984375 -6.070312 1.515625 -6.53125 C 1.046875 -7 0.8125 -7.617188 0.8125 -8.390625 C 0.8125 -9.335938 1.128906 -10.085938 1.765625 -10.640625 C 2.398438 -11.203125 3.316406 -11.484375 4.515625 -11.484375 Z M 4.515625 -11.484375 "/></g></g></g><g fill="#726ab4" fill-opacity="1"><g transform="translate(207.915174, 124.543987)"><g><path d="M 6.03125 -11.484375 C 6.75 -11.484375 7.421875 -11.363281 8.046875 -11.125 C 8.679688 -10.882812 9.226562 -10.519531 9.6875 -10.03125 C 10.144531 -9.550781 10.503906 -8.945312 10.765625 -8.21875 C 11.023438 -7.488281 11.15625 -6.640625 11.15625 -5.671875 C 11.15625 -4.722656 11.019531 -3.882812 10.75 -3.15625 C 10.476562 -2.425781 10.109375 -1.816406 9.640625 -1.328125 C 9.179688 -0.835938 8.628906 -0.46875 7.984375 -0.21875 C 7.347656 0.03125 6.671875 0.15625 5.953125 0.15625 C 5.234375 0.15625 4.554688 0.0351562 3.921875 -0.203125 C 3.296875 -0.453125 2.753906 -0.816406 2.296875 -1.296875 C 1.847656 -1.785156 1.488281 -2.394531 1.21875 -3.125 C 0.957031 -3.851562 0.828125 -4.703125 0.828125 -5.671875 C 0.828125 -6.617188 0.960938 -7.453125 1.234375 -8.171875 C 1.503906 -8.890625 1.875 -9.492188 2.34375 -9.984375 C 2.8125 -10.484375 3.359375 -10.859375 3.984375 -11.109375 C 4.617188 -11.359375 5.300781 -11.484375 6.03125 -11.484375 Z M 2.21875 -5.671875 C 2.21875 -4.859375 2.316406 -4.148438 2.515625 -3.546875 C 2.722656 -2.941406 3 -2.441406 3.34375 -2.046875 C 3.695312 -1.648438 4.101562 -1.351562 4.5625 -1.15625 C 5.019531 -0.96875 5.507812 -0.875 6.03125 -0.875 C 6.539062 -0.875 7.019531 -0.96875 7.46875 -1.15625 C 7.925781 -1.351562 8.328125 -1.648438 8.671875 -2.046875 C 9.015625 -2.441406 9.285156 -2.941406 9.484375 -3.546875 C 9.679688 -4.148438 9.78125 -4.859375 9.78125 -5.671875 C 9.78125 -6.492188 9.675781 -7.207031 9.46875 -7.8125 C 9.257812 -8.425781 8.984375 -8.921875 8.640625 -9.296875 C 8.296875 -9.679688 7.890625 -9.96875 7.421875 -10.15625 C 6.960938 -10.34375 6.472656 -10.4375 5.953125 -10.4375 C 5.441406 -10.4375 4.957031 -10.335938 4.5 -10.140625 C 4.050781 -9.953125 3.65625 -9.660156 3.3125 -9.265625 C 2.976562 -8.867188 2.710938 -8.367188 2.515625 -7.765625 C 2.316406 -7.171875 2.21875 -6.472656 2.21875 -5.671875 Z M 2.21875 -5.671875 "/></g></g></g><g fill="#726ab4" fill-opacity="1"><g transform="translate(219.903134, 124.543987)"><g><path d="M 7.921875 -11.34375 L 7.921875 -10.28125 L 2.734375 -10.28125 L 2.734375 -6.171875 L 7.53125 -6.171875 L 7.53125 -5.125 L 2.734375 -5.125 L 2.734375 0 L 1.4375 0 L 1.4375 -11.34375 Z M 7.921875 -11.34375 "/></g></g></g><g fill="#726ab4" fill-opacity="1"><g transform="translate(228.453106, 124.543987)"><g><path d="M 8.859375 -11.34375 L 8.859375 -10.265625 L 5.125 -10.265625 L 5.125 0 L 3.828125 0 L 3.828125 -10.265625 L 0.1875 -10.265625 L 0.1875 -11.34375 Z M 8.859375 -11.34375 "/></g></g></g><g fill="#726ab4" fill-opacity="1"><g transform="translate(237.471084, 124.543987)"><g><path d="M 1.46875 -11.34375 L 3.390625 -4.65625 C 3.515625 -4.21875 3.644531 -3.710938 3.78125 -3.140625 C 3.914062 -2.578125 4.03125 -2.046875 4.125 -1.546875 L 4.15625 -1.546875 C 4.25 -2.046875 4.367188 -2.578125 4.515625 -3.140625 C 4.660156 -3.703125 4.800781 -4.207031 4.9375 -4.65625 L 6.890625 -11.34375 L 8.078125 -11.34375 L 10.09375 -4.65625 C 10.226562 -4.207031 10.363281 -3.707031 10.5 -3.15625 C 10.632812 -2.601562 10.765625 -2.066406 10.890625 -1.546875 L 10.921875 -1.546875 C 11.015625 -2.078125 11.128906 -2.617188 11.265625 -3.171875 C 11.398438 -3.722656 11.53125 -4.21875 11.65625 -4.65625 L 13.5 -11.34375 L 14.8125 -11.34375 L 11.5625 0 L 10.234375 0 L 8.28125 -6.796875 C 8.144531 -7.304688 8.003906 -7.800781 7.859375 -8.28125 C 7.722656 -8.757812 7.597656 -9.226562 7.484375 -9.6875 L 7.453125 -9.6875 C 7.359375 -9.28125 7.253906 -8.878906 7.140625 -8.484375 C 7.035156 -8.085938 6.929688 -7.691406 6.828125 -7.296875 L 4.78125 0 L 3.484375 0 L 0.140625 -11.34375 Z M 1.46875 -11.34375 "/></g></g></g><g fill="#726ab4" fill-opacity="1"><g transform="translate(252.429037, 124.543987)"><g><path d="M 3.171875 -4.28125 L 7.265625 -4.28125 L 6.375 -6.71875 C 6.21875 -7.132812 6.046875 -7.609375 5.859375 -8.140625 C 5.671875 -8.679688 5.476562 -9.269531 5.28125 -9.90625 L 5.234375 -9.90625 C 5.140625 -9.59375 5.046875 -9.296875 4.953125 -9.015625 C 4.859375 -8.742188 4.765625 -8.476562 4.671875 -8.21875 C 4.578125 -7.96875 4.484375 -7.71875 4.390625 -7.46875 C 4.304688 -7.226562 4.210938 -6.976562 4.109375 -6.71875 Z M 4.6875 -11.34375 L 5.890625 -11.34375 L 10.28125 0 L 8.90625 0 L 7.671875 -3.234375 L 2.8125 -3.234375 L 1.5625 0 L 0.21875 0 Z M 4.6875 -11.34375 "/></g></g></g><g fill="#726ab4" fill-opacity="1"><g transform="translate(262.923004, 124.543987)"><g><path d="M 1.4375 -11.34375 L 4.9375 -11.34375 C 5.519531 -11.34375 6.035156 -11.257812 6.484375 -11.09375 C 6.929688 -10.9375 7.304688 -10.710938 7.609375 -10.421875 C 7.910156 -10.128906 8.140625 -9.78125 8.296875 -9.375 C 8.453125 -8.976562 8.53125 -8.539062 8.53125 -8.0625 C 8.53125 -7.632812 8.460938 -7.242188 8.328125 -6.890625 C 8.203125 -6.535156 8.023438 -6.222656 7.796875 -5.953125 C 7.578125 -5.691406 7.320312 -5.46875 7.03125 -5.28125 C 6.75 -5.101562 6.453125 -4.960938 6.140625 -4.859375 L 9.21875 0 L 7.734375 0 L 4.9375 -4.625 L 2.640625 -4.625 L 2.640625 0 L 1.4375 0 Z M 2.640625 -5.671875 L 4.375 -5.671875 C 4.769531 -5.671875 5.140625 -5.710938 5.484375 -5.796875 C 5.828125 -5.890625 6.125 -6.03125 6.375 -6.21875 C 6.625 -6.414062 6.820312 -6.660156 6.96875 -6.953125 C 7.113281 -7.242188 7.1875 -7.597656 7.1875 -8.015625 C 7.1875 -8.804688 6.957031 -9.382812 6.5 -9.75 C 6.050781 -10.113281 5.390625 -10.296875 4.515625 -10.296875 L 2.640625 -10.296875 Z M 2.640625 -5.671875 "/></g></g></g><g fill="#726ab4" fill-opacity="1"><g transform="translate(272.426979, 124.543987)"><g><path d="M 1.4375 -11.34375 L 8.09375 -11.34375 L 8.09375 -10.28125 L 2.734375 -10.28125 L 2.734375 -6.390625 L 7.625 -6.390625 L 7.625 -5.328125 L 2.734375 -5.328125 L 2.734375 -1.0625 L 8.15625 -1.0625 L 8.15625 0 L 1.4375 0 Z M 1.4375 -11.34375 "/></g></g></g><g fill="#726ab4" fill-opacity="1"><g transform="translate(281.318957, 124.543987)"><g/></g></g><g fill="#726ab4" fill-opacity="1"><g transform="translate(285.224939, 124.543987)"><g><path d="M 1.4375 0 L 1.4375 -11.34375 L 2.734375 -11.34375 L 2.734375 -6.40625 L 8.484375 -6.40625 L 8.484375 -11.34375 L 9.78125 -11.34375 L 9.78125 0 L 8.484375 0 L 8.484375 -5.328125 L 2.734375 -5.328125 L 2.734375 0 Z M 1.4375 0 "/></g></g></g><g fill="#726ab4" fill-opacity="1"><g transform="translate(296.420911, 124.543987)"><g><path d="M 6.03125 -11.484375 C 6.75 -11.484375 7.421875 -11.363281 8.046875 -11.125 C 8.679688 -10.882812 9.226562 -10.519531 9.6875 -10.03125 C 10.144531 -9.550781 10.503906 -8.945312 10.765625 -8.21875 C 11.023438 -7.488281 11.15625 -6.640625 11.15625 -5.671875 C 11.15625 -4.722656 11.019531 -3.882812 10.75 -3.15625 C 10.476562 -2.425781 10.109375 -1.816406 9.640625 -1.328125 C 9.179688 -0.835938 8.628906 -0.46875 7.984375 -0.21875 C 7.347656 0.03125 6.671875 0.15625 5.953125 0.15625 C 5.234375 0.15625 4.554688 0.0351562 3.921875 -0.203125 C 3.296875 -0.453125 2.753906 -0.816406 2.296875 -1.296875 C 1.847656 -1.785156 1.488281 -2.394531 1.21875 -3.125 C 0.957031 -3.851562 0.828125 -4.703125 0.828125 -5.671875 C 0.828125 -6.617188 0.960938 -7.453125 1.234375 -8.171875 C 1.503906 -8.890625 1.875 -9.492188 2.34375 -9.984375 C 2.8125 -10.484375 3.359375 -10.859375 3.984375 -11.109375 C 4.617188 -11.359375 5.300781 -11.484375 6.03125 -11.484375 Z M 2.21875 -5.671875 C 2.21875 -4.859375 2.316406 -4.148438 2.515625 -3.546875 C 2.722656 -2.941406 3 -2.441406 3.34375 -2.046875 C 3.695312 -1.648438 4.101562 -1.351562 4.5625 -1.15625 C 5.019531 -0.96875 5.507812 -0.875 6.03125 -0.875 C 6.539062 -0.875 7.019531 -0.96875 7.46875 -1.15625 C 7.925781 -1.351562 8.328125 -1.648438 8.671875 -2.046875 C 9.015625 -2.441406 9.285156 -2.941406 9.484375 -3.546875 C 9.679688 -4.148438 9.78125 -4.859375 9.78125 -5.671875 C 9.78125 -6.492188 9.675781 -7.207031 9.46875 -7.8125 C 9.257812 -8.425781 8.984375 -8.921875 8.640625 -9.296875 C 8.296875 -9.679688 7.890625 -9.96875 7.421875 -10.15625 C 6.960938 -10.34375 6.472656 -10.4375 5.953125 -10.4375 C 5.441406 -10.4375 4.957031 -10.335938 4.5 -10.140625 C 4.050781 -9.953125 3.65625 -9.660156 3.3125 -9.265625 C 2.976562 -8.867188 2.710938 -8.367188 2.515625 -7.765625 C 2.316406 -7.171875 2.21875 -6.472656 2.21875 -5.671875 Z M 2.21875 -5.671875 "/></g></g></g><g fill="#726ab4" fill-opacity="1"><g transform="translate(308.408871, 124.543987)"><g><path d="M 1.34375 -11.34375 L 2.640625 -11.34375 L 2.640625 -4.546875 C 2.640625 -3.234375 2.882812 -2.296875 3.375 -1.734375 C 3.863281 -1.179688 4.632812 -0.90625 5.6875 -0.90625 C 6.207031 -0.90625 6.648438 -0.988281 7.015625 -1.15625 C 7.390625 -1.320312 7.691406 -1.550781 7.921875 -1.84375 C 8.160156 -2.144531 8.335938 -2.503906 8.453125 -2.921875 C 8.566406 -3.347656 8.625 -3.820312 8.625 -4.34375 L 8.625 -11.34375 L 9.921875 -11.34375 L 9.921875 -4.390625 C 9.921875 -2.828125 9.550781 -1.675781 8.8125 -0.9375 C 8.070312 -0.207031 7.03125 0.15625 5.6875 0.15625 C 4.332031 0.15625 3.269531 -0.207031 2.5 -0.9375 C 1.726562 -1.675781 1.34375 -2.859375 1.34375 -4.484375 Z M 1.34375 -11.34375 "/></g></g></g><g fill="#726ab4" fill-opacity="1"><g transform="translate(319.676837, 124.543987)"><g><path d="M 4.515625 -11.484375 C 5.054688 -11.484375 5.578125 -11.4375 6.078125 -11.34375 C 6.578125 -11.25 7.070312 -11.085938 7.5625 -10.859375 L 7.234375 -9.796875 C 6.722656 -10.035156 6.257812 -10.203125 5.84375 -10.296875 C 5.425781 -10.390625 5.003906 -10.4375 4.578125 -10.4375 C 3.835938 -10.4375 3.242188 -10.269531 2.796875 -9.9375 C 2.359375 -9.613281 2.140625 -9.148438 2.140625 -8.546875 C 2.140625 -8.023438 2.304688 -7.609375 2.640625 -7.296875 C 2.984375 -6.992188 3.507812 -6.726562 4.21875 -6.5 L 5.421875 -6.109375 C 6.335938 -5.796875 7.007812 -5.367188 7.4375 -4.828125 C 7.863281 -4.296875 8.078125 -3.6875 8.078125 -3 C 8.078125 -2.507812 7.984375 -2.066406 7.796875 -1.671875 C 7.617188 -1.285156 7.359375 -0.957031 7.015625 -0.6875 C 6.679688 -0.414062 6.28125 -0.207031 5.8125 -0.0625 C 5.34375 0.0820312 4.828125 0.15625 4.265625 0.15625 C 3.691406 0.15625 3.117188 0.101562 2.546875 0 C 1.972656 -0.101562 1.398438 -0.289062 0.828125 -0.5625 L 1.171875 -1.625 C 1.671875 -1.363281 2.164062 -1.175781 2.65625 -1.0625 C 3.144531 -0.957031 3.65625 -0.90625 4.1875 -0.90625 C 4.925781 -0.90625 5.535156 -1.066406 6.015625 -1.390625 C 6.503906 -1.710938 6.75 -2.207031 6.75 -2.875 C 6.75 -3.113281 6.710938 -3.335938 6.640625 -3.546875 C 6.578125 -3.765625 6.460938 -3.960938 6.296875 -4.140625 C 6.128906 -4.316406 5.898438 -4.484375 5.609375 -4.640625 C 5.328125 -4.804688 4.960938 -4.960938 4.515625 -5.109375 L 3.34375 -5.484375 C 2.59375 -5.722656 1.984375 -6.070312 1.515625 -6.53125 C 1.046875 -7 0.8125 -7.617188 0.8125 -8.390625 C 0.8125 -9.335938 1.128906 -10.085938 1.765625 -10.640625 C 2.398438 -11.203125 3.316406 -11.484375 4.515625 -11.484375 Z M 4.515625 -11.484375 "/></g></g></g><g fill="#726ab4" fill-opacity="1"><g transform="translate(328.568815, 124.543987)"><g><path d="M 1.4375 -11.34375 L 8.09375 -11.34375 L 8.09375 -10.28125 L 2.734375 -10.28125 L 2.734375 -6.390625 L 7.625 -6.390625 L 7.625 -5.328125 L 2.734375 -5.328125 L 2.734375 -1.0625 L 8.15625 -1.0625 L 8.15625 0 L 1.4375 0 Z M 1.4375 -11.34375 "/></g></g></g><g fill="#726ab4" fill-opacity="1"><g transform="translate(337.460793, 124.543987)"><g/></g></g><g fill="#726ab4" fill-opacity="1"><g transform="translate(341.366776, 124.543987)"><g><path d="M 4.515625 -11.484375 C 5.054688 -11.484375 5.578125 -11.4375 6.078125 -11.34375 C 6.578125 -11.25 7.070312 -11.085938 7.5625 -10.859375 L 7.234375 -9.796875 C 6.722656 -10.035156 6.257812 -10.203125 5.84375 -10.296875 C 5.425781 -10.390625 5.003906 -10.4375 4.578125 -10.4375 C 3.835938 -10.4375 3.242188 -10.269531 2.796875 -9.9375 C 2.359375 -9.613281 2.140625 -9.148438 2.140625 -8.546875 C 2.140625 -8.023438 2.304688 -7.609375 2.640625 -7.296875 C 2.984375 -6.992188 3.507812 -6.726562 4.21875 -6.5 L 5.421875 -6.109375 C 6.335938 -5.796875 7.007812 -5.367188 7.4375 -4.828125 C 7.863281 -4.296875 8.078125 -3.6875 8.078125 -3 C 8.078125 -2.507812 7.984375 -2.066406 7.796875 -1.671875 C 7.617188 -1.285156 7.359375 -0.957031 7.015625 -0.6875 C 6.679688 -0.414062 6.28125 -0.207031 5.8125 -0.0625 C 5.34375 0.0820312 4.828125 0.15625 4.265625 0.15625 C 3.691406 0.15625 3.117188 0.101562 2.546875 0 C 1.972656 -0.101562 1.398438 -0.289062 0.828125 -0.5625 L 1.171875 -1.625 C 1.671875 -1.363281 2.164062 -1.175781 2.65625 -1.0625 C 3.144531 -0.957031 3.65625 -0.90625 4.1875 -0.90625 C 4.925781 -0.90625 5.535156 -1.066406 6.015625 -1.390625 C 6.503906 -1.710938 6.75 -2.207031 6.75 -2.875 C 6.75 -3.113281 6.710938 -3.335938 6.640625 -3.546875 C 6.578125 -3.765625 6.460938 -3.960938 6.296875 -4.140625 C 6.128906 -4.316406 5.898438 -4.484375 5.609375 -4.640625 C 5.328125 -4.804688 4.960938 -4.960938 4.515625 -5.109375 L 3.34375 -5.484375 C 2.59375 -5.722656 1.984375 -6.070312 1.515625 -6.53125 C 1.046875 -7 0.8125 -7.617188 0.8125 -8.390625 C 0.8125 -9.335938 1.128906 -10.085938 1.765625 -10.640625 C 2.398438 -11.203125 3.316406 -11.484375 4.515625 -11.484375 Z M 4.515625 -11.484375 "/></g></g></g><g fill="#726ab4" fill-opacity="1"><g transform="translate(350.258754, 124.543987)"><g><path d="M 8.859375 -11.34375 L 8.859375 -10.265625 L 5.125 -10.265625 L 5.125 0 L 3.828125 0 L 3.828125 -10.265625 L 0.1875 -10.265625 L 0.1875 -11.34375 Z M 8.859375 -11.34375 "/></g></g></g><g fill="#726ab4" fill-opacity="1"><g transform="translate(359.276732, 124.543987)"><g><path d="M 1.34375 -11.34375 L 2.640625 -11.34375 L 2.640625 -4.546875 C 2.640625 -3.234375 2.882812 -2.296875 3.375 -1.734375 C 3.863281 -1.179688 4.632812 -0.90625 5.6875 -0.90625 C 6.207031 -0.90625 6.648438 -0.988281 7.015625 -1.15625 C 7.390625 -1.320312 7.691406 -1.550781 7.921875 -1.84375 C 8.160156 -2.144531 8.335938 -2.503906 8.453125 -2.921875 C 8.566406 -3.347656 8.625 -3.820312 8.625 -4.34375 L 8.625 -11.34375 L 9.921875 -11.34375 L 9.921875 -4.390625 C 9.921875 -2.828125 9.550781 -1.675781 8.8125 -0.9375 C 8.070312 -0.207031 7.03125 0.15625 5.6875 0.15625 C 4.332031 0.15625 3.269531 -0.207031 2.5 -0.9375 C 1.726562 -1.675781 1.34375 -2.859375 1.34375 -4.484375 Z M 1.34375 -11.34375 "/></g></g></g><g fill="#726ab4" fill-opacity="1"><g transform="translate(370.544698, 124.543987)"><g><path d="M 4.953125 -11.34375 C 5.722656 -11.34375 6.4375 -11.226562 7.09375 -11 C 7.757812 -10.769531 8.332031 -10.429688 8.8125 -9.984375 C 9.300781 -9.535156 9.679688 -8.96875 9.953125 -8.28125 C 10.234375 -7.601562 10.375 -6.816406 10.375 -5.921875 C 10.375 -4.828125 10.207031 -3.898438 9.875 -3.140625 C 9.550781 -2.390625 9.113281 -1.78125 8.5625 -1.3125 C 8.007812 -0.84375 7.367188 -0.503906 6.640625 -0.296875 C 5.910156 -0.0976562 5.132812 0 4.3125 0 L 1.4375 0 L 1.4375 -11.34375 Z M 2.734375 -1.0625 L 4.15625 -1.0625 C 4.757812 -1.0625 5.347656 -1.128906 5.921875 -1.265625 C 6.492188 -1.398438 7.007812 -1.648438 7.46875 -2.015625 C 7.925781 -2.390625 8.289062 -2.890625 8.5625 -3.515625 C 8.84375 -4.148438 8.984375 -4.953125 8.984375 -5.921875 C 8.984375 -6.617188 8.878906 -7.238281 8.671875 -7.78125 C 8.460938 -8.320312 8.164062 -8.773438 7.78125 -9.140625 C 7.40625 -9.515625 6.945312 -9.796875 6.40625 -9.984375 C 5.863281 -10.179688 5.269531 -10.28125 4.625 -10.28125 L 2.734375 -10.28125 Z M 2.734375 -1.0625 "/></g></g></g><g fill="#726ab4" fill-opacity="1"><g transform="translate(381.74067, 124.543987)"><g><path d="M 2.734375 -11.34375 L 2.734375 0 L 1.4375 0 L 1.4375 -11.34375 Z M 2.734375 -11.34375 "/></g></g></g><g fill="#726ab4" fill-opacity="1"><g transform="translate(385.898663, 124.543987)"><g><path d="M 6.03125 -11.484375 C 6.75 -11.484375 7.421875 -11.363281 8.046875 -11.125 C 8.679688 -10.882812 9.226562 -10.519531 9.6875 -10.03125 C 10.144531 -9.550781 10.503906 -8.945312 10.765625 -8.21875 C 11.023438 -7.488281 11.15625 -6.640625 11.15625 -5.671875 C 11.15625 -4.722656 11.019531 -3.882812 10.75 -3.15625 C 10.476562 -2.425781 10.109375 -1.816406 9.640625 -1.328125 C 9.179688 -0.835938 8.628906 -0.46875 7.984375 -0.21875 C 7.347656 0.03125 6.671875 0.15625 5.953125 0.15625 C 5.234375 0.15625 4.554688 0.0351562 3.921875 -0.203125 C 3.296875 -0.453125 2.753906 -0.816406 2.296875 -1.296875 C 1.847656 -1.785156 1.488281 -2.394531 1.21875 -3.125 C 0.957031 -3.851562 0.828125 -4.703125 0.828125 -5.671875 C 0.828125 -6.617188 0.960938 -7.453125 1.234375 -8.171875 C 1.503906 -8.890625 1.875 -9.492188 2.34375 -9.984375 C 2.8125 -10.484375 3.359375 -10.859375 3.984375 -11.109375 C 4.617188 -11.359375 5.300781 -11.484375 6.03125 -11.484375 Z M 2.21875 -5.671875 C 2.21875 -4.859375 2.316406 -4.148438 2.515625 -3.546875 C 2.722656 -2.941406 3 -2.441406 3.34375 -2.046875 C 3.695312 -1.648438 4.101562 -1.351562 4.5625 -1.15625 C 5.019531 -0.96875 5.507812 -0.875 6.03125 -0.875 C 6.539062 -0.875 7.019531 -0.96875 7.46875 -1.15625 C 7.925781 -1.351562 8.328125 -1.648438 8.671875 -2.046875 C 9.015625 -2.441406 9.285156 -2.941406 9.484375 -3.546875 C 9.679688 -4.148438 9.78125 -4.859375 9.78125 -5.671875 C 9.78125 -6.492188 9.675781 -7.207031 9.46875 -7.8125 C 9.257812 -8.425781 8.984375 -8.921875 8.640625 -9.296875 C 8.296875 -9.679688 7.890625 -9.96875 7.421875 -10.15625 C 6.960938 -10.34375 6.472656 -10.4375 5.953125 -10.4375 C 5.441406 -10.4375 4.957031 -10.335938 4.5 -10.140625 C 4.050781 -9.953125 3.65625 -9.660156 3.3125 -9.265625 C 2.976562 -8.867188 2.710938 -8.367188 2.515625 -7.765625 C 2.316406 -7.171875 2.21875 -6.472656 2.21875 -5.671875 Z M 2.21875 -5.671875 "/></g></g></g></svg>