<svg width="24" height="24" viewBox="0 0 24 24" fill="none" xmlns="http://www.w3.org/2000/svg">
<g id="chatbubble">
<path id="Vector" d="M3.60048 22.5C3.28167 22.4985 2.97646 22.3707 2.75177 22.1445C2.52709 21.9183 2.40126 21.6123 2.40189 21.2934C2.40468 21.1723 2.42359 21.052 2.45814 20.9358L3.32157 17.8125C3.35767 17.6972 3.31689 17.5809 3.26392 17.4891L3.25361 17.4703C3.24986 17.4642 3.23204 17.4394 3.21939 17.4211C3.20673 17.4028 3.1922 17.3831 3.17907 17.3639L3.17017 17.3513C2.07993 15.6988 1.49886 13.7627 1.49907 11.783C1.49064 9.08344 2.54673 6.53297 4.47376 4.59797C6.46782 2.60016 9.13501 1.5 11.9906 1.5C14.4131 1.4988 16.7638 2.3228 18.6553 3.83625C20.5045 5.32453 21.7899 7.39875 22.2745 9.68063C22.4237 10.3738 22.4989 11.0809 22.4986 11.79C22.4986 14.5523 21.4374 17.1469 19.5099 19.0964C17.5655 21.0652 14.9545 22.1461 12.1584 22.1461C11.1741 22.1461 9.91454 21.8948 9.30986 21.7242C8.58236 21.5208 7.89282 21.2555 7.81689 21.2273C7.73652 21.1966 7.65122 21.1807 7.56517 21.1805C7.47183 21.1799 7.37935 21.1982 7.29329 21.2344L7.25345 21.2498L4.09032 22.3927C3.93497 22.4581 3.76895 22.4944 3.60048 22.5Z" fill="#2B2B2B"/>
</g>
</svg>
