<svg width="24" height="25" viewBox="0 0 24 25" fill="none" xmlns="http://www.w3.org/2000/svg">
<g id="Search">
<g id="Group">
<path id="Vector" fill-rule="evenodd" clip-rule="evenodd" d="M10.3326 2.56982C9.0195 2.56994 7.72551 2.88721 6.55855 3.49518C5.39159 4.10315 4.38549 4.98418 3.62419 6.06477C2.86289 7.14535 2.36847 8.39416 2.18218 9.70701C1.99588 11.0198 2.12312 12.3587 2.55327 13.6117C2.98343 14.8648 3.70402 15.9958 4.65494 16.9104C5.60585 17.8249 6.75952 18.4966 8.01967 18.8692C9.27983 19.2418 10.6099 19.3047 11.899 19.0525C13.1881 18.8003 14.3988 18.2404 15.4301 17.4195L18.968 20.9929C19.1507 21.1712 19.3954 21.2698 19.6494 21.2676C19.9034 21.2653 20.1464 21.1624 20.326 20.981C20.5056 20.7996 20.6075 20.5542 20.6097 20.2976C20.6119 20.041 20.5143 19.7939 20.3378 19.6093L16.7999 16.0359C17.757 14.8094 18.353 13.3356 18.5196 11.7831C18.6861 10.2305 18.4166 8.66195 17.7418 7.2569C17.067 5.85186 16.0142 4.66709 14.7038 3.83818C13.3935 3.00927 11.8786 2.56972 10.3326 2.56982ZM4.03568 10.887C4.03568 9.20019 4.6991 7.58245 5.87999 6.38968C7.06088 5.19691 8.66252 4.52681 10.3326 4.52681C12.0026 4.52681 13.6042 5.19691 14.7851 6.38968C15.966 7.58245 16.6294 9.20019 16.6294 10.887C16.6294 12.5739 15.966 14.1916 14.7851 15.3844C13.6042 16.5772 12.0026 17.2472 10.3326 17.2472C8.66252 17.2472 7.06088 16.5772 5.87999 15.3844C4.6991 14.1916 4.03568 12.5739 4.03568 10.887Z" fill="#00AF94"/>
</g>
</g>
</svg>
