<svg width="40" height="40" viewBox="0 0 40 40" fill="none" xmlns="http://www.w3.org/2000/svg">
<g id="coins">
<g id="Group">
<path id="Vector" d="M38.5294 21.4699C38.5294 31.703 30.235 39.9999 19.998 39.9999C9.76367 39.9999 1.4707 31.7031 1.4707 21.4699C1.4707 11.2375 9.76367 2.93994 19.998 2.93994C30.235 2.93994 38.5294 11.2375 38.5294 21.4699Z" fill="#FBB040"/>
<path id="Vector_2" d="M21.1466 34.0209C10.9121 34.0209 5.79102 28.3542 2.94336 25.3151V28.7187C3.78453 30.6953 4.95898 32.4948 6.39648 34.0495V30.6198C7.6243 31.9479 9.03969 33.0962 10.6074 34.0208V37.4413C11.7013 38.0854 12.8584 38.6155 14.0605 39.0234V35.6067C15.403 36.0598 16.8105 36.3723 18.2715 36.5077V39.9166C18.8418 39.9687 19.416 39.9999 19.998 39.9999C20.5814 39.9999 21.1582 39.9687 21.7273 39.9166V36.5077C23.1882 36.3723 24.5957 36.0598 25.9381 35.6067V39.0208C27.1405 38.6147 28.2978 38.0854 29.3913 37.4413V34.0208C30.959 33.0962 32.3745 31.9479 33.6023 30.6198V34.0495C35.0396 32.4948 36.2155 30.6952 37.0566 28.7187V25.3151C35.0618 26.7084 31.3835 34.0209 21.1466 34.0209ZM8.83008 26.2213C8.07352 24.5312 7.64258 22.6615 7.64258 20.6895C7.64258 13.1973 13.7142 7.12305 21.2077 7.12305C25.843 7.12305 29.9316 9.45117 32.3782 12.9973C31.3678 7.52016 24.7768 3.85352 19.2559 3.85352C11.7637 3.85352 5.36781 10.6399 5.36781 18.1315C5.36781 20.9883 5.58922 24.6315 8.83008 26.2213Z" fill="#F7941E"/>
<path id="Vector_3" d="M19.998 0.000488281C9.76367 0.000488281 1.4707 8.29736 1.4707 18.5298C1.4707 28.7656 9.76367 37.0599 19.998 37.0599C30.235 37.0599 38.5294 28.7656 38.5294 18.5298C38.5294 8.29736 30.235 0.000488281 19.998 0.000488281ZM19.998 32.0963C12.5059 32.0963 6.43297 26.0221 6.43297 18.5298C6.43297 11.0382 12.5059 4.96346 19.998 4.96346C27.4916 4.96346 33.5659 11.0383 33.5659 18.5298C33.5659 26.0221 27.4916 32.0963 19.998 32.0963Z" fill="#F9ED32"/>
</g>
</g>
</svg>
