<svg width="20" height="23" viewBox="0 0 20 23" fill="none" xmlns="http://www.w3.org/2000/svg">
<g id="Info" clip-path="url(#clip0_506_7139)">
<g id="Group">
<path id="Vector" d="M10 2.22998C14.6025 2.22998 18.3334 6.30329 18.3334 11.3283C18.3334 16.3533 14.6025 20.4266 10 20.4266C5.39752 20.4266 1.66669 16.3533 1.66669 11.3283C1.66669 6.30329 5.39752 2.22998 10 2.22998ZM9.99169 9.50863H9.16669C8.95429 9.50888 8.74999 9.59768 8.59555 9.75687C8.4411 9.91606 8.34816 10.1336 8.33571 10.3651C8.32326 10.5966 8.39225 10.8246 8.52857 11.0024C8.6649 11.1802 8.85827 11.2945 9.06919 11.3219L9.16669 11.3283V15.8683C9.16669 16.3415 9.49502 16.7327 9.91669 16.7818L10.0084 16.7873H10.4167C10.5919 16.7873 10.7627 16.727 10.9048 16.6149C11.0469 16.5028 11.1529 16.3447 11.2079 16.163C11.2629 15.9813 11.2641 15.7853 11.2112 15.6029C11.1583 15.4205 11.0541 15.2609 10.9134 15.1468L10.8334 15.0895V10.4276C10.8334 9.95444 10.505 9.56322 10.0834 9.51408L9.99169 9.50863ZM10 6.77913C9.77901 6.77913 9.56705 6.87499 9.41076 7.04562C9.25448 7.21624 9.16669 7.44766 9.16669 7.68896C9.16669 7.93027 9.25448 8.16169 9.41076 8.33231C9.56705 8.50294 9.77901 8.5988 10 8.5988C10.221 8.5988 10.433 8.50294 10.5893 8.33231C10.7456 8.16169 10.8334 7.93027 10.8334 7.68896C10.8334 7.44766 10.7456 7.21624 10.5893 7.04562C10.433 6.87499 10.221 6.77913 10 6.77913Z" fill="#A5A5A5"/>
</g>
</g>
<defs>
<clipPath id="clip0_506_7139">
<rect width="20" height="21.8359" fill="white" transform="translate(0 0.410156)"/>
</clipPath>
</defs>
</svg>
