<svg width="40" height="40" viewBox="0 0 40 40" fill="none" xmlns="http://www.w3.org/2000/svg">
<g id="points">
<g id="Group">
<path id="Vector" d="M19.9847 36.8918C10.6631 36.8918 3.07788 29.3066 3.07788 19.985C3.07788 10.6634 10.6631 3.07812 19.9847 3.07812C29.3063 3.07812 36.8916 10.6634 36.8916 19.985C36.8916 29.3066 29.3063 36.8918 19.9847 36.8918Z" fill="#FFC107"/>
<path id="Vector_2" d="M25.7119 29.5805C25.6206 29.5805 25.5292 29.5805 25.4378 29.5196L19.9849 27.4177L14.5626 29.5196C14.3189 29.6415 14.0142 29.5805 13.801 29.4282C13.5877 29.2759 13.4659 29.0322 13.4964 28.758L13.8314 22.9396L10.115 18.4312C9.96267 18.2179 9.90175 17.9437 9.99313 17.6696C10.0845 17.4259 10.2673 17.2126 10.5415 17.1517L16.1771 15.6895L19.3452 10.7545C19.4671 10.5413 19.7412 10.4194 19.9849 10.4194C20.2591 10.4194 20.5028 10.5413 20.6551 10.7545L23.8232 15.6895L29.4589 17.1517C29.7026 17.2126 29.9158 17.4259 30.0072 17.6696C30.0986 17.9437 30.0377 18.2179 29.8549 18.4312L26.1689 22.9396L26.504 28.758C26.504 29.0322 26.3821 29.2759 26.1689 29.4282C26.047 29.5501 25.8643 29.5805 25.7119 29.5805Z" fill="white"/>
</g>
</g>
</svg>
